/* Format_version=1, Width=64, Height=64, Depth=1, Valid_bits_per_item=16
 */
#define pricon_width  64
#define pricon_height 64
static unsigned char pricon_bits[] = {
   0x00, 0x00, 0x00, 0x00, 0x00, 0x00, 0x00, 0x00,
   0x00, 0x00, 0x00, 0x00, 0x00, 0x00, 0x00, 0x00,
   0x00, 0x00, 0x00, 0x00, 0x00, 0x00, 0x00, 0x00,
   0x00, 0x00, 0x00, 0x00, 0x00, 0x00, 0x00, 0x00,
   0x00, 0x00, 0x00, 0x00, 0x00, 0x00, 0x00, 0x00,
   0x00, 0x00, 0x00, 0x00, 0x00, 0x00, 0x00, 0x00,
   0x00, 0x00, 0x00, 0x00, 0x00, 0x00, 0x00, 0x00,
   0x00, 0x00, 0x00, 0x00, 0x00, 0x00, 0x00, 0x00,
   0x00, 0x00, 0x00, 0x00, 0x00, 0x00, 0x00, 0x00,
   0x00, 0x00, 0x00, 0x00, 0x00, 0x00, 0x00, 0x00,
   0x00, 0x00, 0x00, 0x00, 0x00, 0x00, 0x00, 0x00,
   0x00, 0x00, 0x00, 0x00, 0x00, 0x00, 0x00, 0x00,
   0x00, 0x00, 0x00, 0x00, 0x00, 0x00, 0x00, 0x00,
   0x00, 0x00, 0x00, 0x00, 0x00, 0x00, 0x00, 0x00,
   0x00, 0x00, 0x00, 0x00, 0x00, 0x00, 0x00, 0x08,
   0x00, 0x00, 0x00, 0x00, 0x00, 0x00, 0x00, 0x1c,
   0x00, 0x00, 0x00, 0x00, 0x00, 0x00, 0x00, 0x3f,
   0x00, 0x00, 0x00, 0x00, 0x00, 0x00, 0x80, 0x7f,
   0x00, 0x00, 0x00, 0x00, 0x00, 0x00, 0xc0, 0x3f,
   0x00, 0x00, 0x00, 0x00, 0x00, 0x00, 0xe0, 0x1f,
   0x00, 0x00, 0x00, 0x00, 0x00, 0x00, 0xf8, 0x07,
   0x00, 0x00, 0x00, 0x00, 0x00, 0x00, 0xfc, 0x03,
   0x00, 0x00, 0x00, 0x00, 0x00, 0x00, 0x7f, 0x00,
   0x00, 0x00, 0x00, 0x00, 0x00, 0x80, 0x1f, 0x00,
   0x00, 0x00, 0x00, 0x00, 0x00, 0xe0, 0x0f, 0x00,
   0x00, 0x00, 0x00, 0x00, 0x00, 0xf0, 0x03, 0x00,
   0x00, 0x00, 0x00, 0x00, 0x00, 0xfc, 0x01, 0x00,
   0x00, 0x00, 0x00, 0x00, 0x00, 0x7e, 0x00, 0x00,
   0x00, 0x00, 0x00, 0x00, 0x80, 0x7f, 0x00, 0x00,
   0x00, 0x00, 0x00, 0x00, 0xe0, 0x7f, 0x00, 0x00,
   0x00, 0x00, 0x00, 0x00, 0xf0, 0x27, 0x00, 0x00,
   0x00, 0x00, 0x00, 0x00, 0xf8, 0x71, 0x00, 0x00,
   0x00, 0x00, 0x00, 0x00, 0xf8, 0xf0, 0x00, 0x00,
   0x00, 0x00, 0x00, 0x00, 0x3e, 0xf8, 0x00, 0x00,
   0x00, 0x00, 0x00, 0x00, 0x0f, 0xb8, 0x00, 0x00,
   0x00, 0x00, 0x00, 0x80, 0x01, 0xa8, 0x01, 0x00,
   0x00, 0x00, 0x00, 0xfc, 0x00, 0x3c, 0x01, 0x00,
   0x00, 0x00, 0x00, 0xfc, 0x00, 0x24, 0x03, 0x00,
   0x00, 0x00, 0xfe, 0xfc, 0x00, 0x36, 0x02, 0x00,
   0x00, 0x80, 0xff, 0x7f, 0x00, 0x26, 0x06, 0x00,
   0x00, 0xc0, 0xff, 0x7f, 0x00, 0x32, 0x04, 0x00,
   0x00, 0xe0, 0xff, 0x3f, 0x00, 0x13, 0x0c, 0x00,
   0x00, 0xe0, 0xff, 0x3f, 0x00, 0x31, 0x08, 0x00,
   0x00, 0xf0, 0xff, 0x1f, 0x00, 0x11, 0x18, 0x00,
   0x00, 0xf0, 0xff, 0x1f, 0x80, 0x11, 0x10, 0x00,
   0x00, 0xf8, 0xff, 0x0f, 0x80, 0x10, 0x30, 0x00,
   0x00, 0xf8, 0xff, 0x07, 0xc0, 0x10, 0x20, 0x00,
   0x00, 0xfc, 0xcf, 0x03, 0xc0, 0x10, 0x60, 0x00,
   0x02, 0xfc, 0xcf, 0x03, 0x60, 0x10, 0x40, 0x00,
   0x06, 0xee, 0xcf, 0x03, 0x60, 0x10, 0xc0, 0x00,
   0xde, 0xe7, 0xc7, 0x07, 0x20, 0x10, 0x80, 0x00,
   0xfc, 0x43, 0xc6, 0x06, 0x30, 0x18, 0x80, 0x01,
   0x70, 0xc0, 0xde, 0x0c, 0x30, 0x18, 0x80, 0x01,
   0x00, 0x80, 0xbd, 0x05, 0x00, 0x00, 0x00, 0x00,
   0x00, 0x00, 0x00, 0x00, 0x00, 0x00, 0x00, 0x00,
   0x00, 0x00, 0x00, 0x00, 0x00, 0x00, 0x00, 0x00,
   0x00, 0x00, 0x00, 0x00, 0x00, 0x00, 0x00, 0x00,
   0x00, 0x00, 0x00, 0x00, 0x00, 0x00, 0x00, 0x00,
   0x00, 0x00, 0x00, 0x00, 0x00, 0x00, 0x00, 0x00,
   0x00, 0x00, 0x00, 0x00, 0x00, 0x00, 0x00, 0x00,
   0x00, 0x00, 0x00, 0x00, 0x00, 0x00, 0x00, 0x00,
   0x00, 0x00, 0x00, 0x00, 0x00, 0x00, 0x00, 0x00,
   0x00, 0x00, 0x00, 0x00, 0x00, 0x00, 0x00, 0x00,
   0x00, 0x00, 0x00, 0x00, 0x00, 0x00, 0x00, 0x00
};
